<?xml version="1.0" encoding="utf-8"?>
<!-- Generator: Adobe Illustrator 16.0.0, SVG Export Plug-In . SVG Version: 6.00 Build 0)  -->
<!DOCTYPE svg PUBLIC "-//W3C//DTD SVG 1.1//EN" "http://www.w3.org/Graphics/SVG/1.1/DTD/svg11.dtd">
<svg version="1.1" id="Calque_1" xmlns="http://www.w3.org/2000/svg" xmlns:xlink="http://www.w3.org/1999/xlink" x="0px" y="0px"
	 width="104px" height="104px" viewBox="0 0 104 104" enable-background="new 0 0 104 104" xml:space="preserve">
<g>
	<circle fill="#2A6779" cx="52" cy="52" r="52"/>
	<g>
		<path fill="#FFFFFF" d="M44.807,52.359c0-7.439,0-14.878-0.001-22.316c0-0.187,0.02-0.38-0.021-0.559
			c-0.078-0.345-0.402-0.461-0.69-0.253c-0.135,0.097-0.246,0.229-0.363,0.349c-4.468,4.568-8.938,9.134-13.397,13.709
			c-0.298,0.305-0.598,0.431-1.025,0.427c-2.598-0.019-5.195-0.01-7.794-0.009c-0.865,0-0.94,0.074-0.94,0.917
			c0,5.159,0,10.317,0.001,15.476c0,0.168-0.008,0.338,0.016,0.504c0.088,0.629,0.363,0.865,0.999,0.865
			c2.504,0.001,5.01-0.008,7.513,0.013c0.267,0.003,0.6,0.111,0.783,0.291c3.464,3.38,6.909,6.78,10.358,10.174
			c1.186,1.166,2.366,2.337,3.565,3.489c0.14,0.134,0.445,0.277,0.561,0.213c0.193-0.107,0.327-0.365,0.424-0.586
			c0.061-0.142,0.013-0.332,0.013-0.5C44.807,67.162,44.807,59.761,44.807,52.359z M66.037,30.593
			c5.955,6.027,9.06,13.214,9.057,21.629c-0.002,8.431-3.107,15.637-9.109,21.693c0.898,0.822,1.774,1.624,2.651,2.427
			c14.068-13.519,12.923-36.221-0.038-48.23C67.753,28.931,66.909,29.748,66.037,30.593z M61.223,69.635
			c10.418-9.812,9.668-26.067,0.438-34.816c-0.858,0.821-1.716,1.641-2.591,2.478c4.068,4.168,6.153,9.143,6.094,14.923
			c-0.06,5.795-2.264,10.735-6.429,14.798C59.587,67.914,60.396,68.765,61.223,69.635z M52.094,45.787
			c1.818,1.864,2.741,4.056,2.72,6.602c-0.021,2.543-0.989,4.713-2.813,6.525c0.85,0.89,1.669,1.748,2.487,2.606
			c5.38-4.932,5.155-13.656,0.168-18.246C53.817,44.095,52.981,44.916,52.094,45.787z"/>
		<path fill="#FFFFFF" d="M44.807,52.359c0,7.401,0,14.803,0,22.204c0,0.168,0.048,0.358-0.013,0.5
			c-0.097,0.221-0.23,0.479-0.424,0.586c-0.115,0.064-0.421-0.079-0.561-0.213c-1.199-1.152-2.38-2.323-3.565-3.489
			c-3.449-3.395-6.895-6.794-10.358-10.174c-0.184-0.179-0.517-0.288-0.783-0.291c-2.503-0.021-5.009-0.012-7.513-0.013
			c-0.636,0-0.911-0.235-0.999-0.865c-0.023-0.166-0.016-0.336-0.016-0.504c-0.001-5.158-0.001-10.317-0.001-15.476
			c0-0.843,0.075-0.917,0.94-0.917c2.599-0.001,5.196-0.01,7.794,0.009c0.428,0.003,0.728-0.122,1.025-0.427
			c4.46-4.576,8.93-9.142,13.397-13.709c0.117-0.12,0.229-0.252,0.363-0.349c0.288-0.208,0.612-0.092,0.69,0.253
			c0.04,0.179,0.021,0.372,0.021,0.559C44.807,37.481,44.807,44.92,44.807,52.359z"/>
		<path fill="#FFFFFF" d="M66.037,30.593c0.872-0.845,1.716-1.662,2.561-2.481c12.961,12.009,14.106,34.711,0.038,48.23
			c-0.877-0.803-1.753-1.604-2.651-2.427c6.002-6.057,9.107-13.263,9.109-21.693C75.097,43.807,71.992,36.62,66.037,30.593z"/>
	</g>
</g>
</svg>
